<svg xmlns="http://www.w3.org/2000/svg" viewBox="0 0 440.34 127.79"><defs><style>.cls-1{fill:#134767;}.cls-2{fill:#00a099;}.cls-3{fill:#fff;}</style></defs><g id="Capa_2" data-name="Capa 2"><g id="Capa_1-2" data-name="Capa 1"><path class="cls-1" d="M27.5,64.84H1.91V.92H28.07C50.71.92,64.77,13,64.77,32.46v.14C64.77,52.18,50.14,64.84,27.5,64.84ZM16.32,50.43H27.5l1.19,0H18.46V15.35h10c14.5,0,19.66,9,19.66,17.46V33c0,7.53-4.1,15.51-15.26,17.16,8.11-1,17.54-4.93,17.54-17.51v-.14c0-11.37-7.5-17.13-22.29-17.13H16.32ZM32.87,30.59v4.58a2.36,2.36,0,0,0,.8-2.22v-.14A2.36,2.36,0,0,0,32.87,30.59Z"/><path class="cls-1" d="M85.92,64.84H55V.92h31ZM69.37,50.43H71.5V15.33H69.37Z"/><path class="cls-1" d="M105.73,65.76c-12,0-22.69-3.6-30.14-10.13L70.28,51l11-13.09A18.76,18.76,0,0,1,75.82,24V23.9C75.82,12,84.54,0,104,0,115,0,123.74,2.73,130.85,8.34l5.41,4.28-9.37,13a19,19,0,0,1,7.9,16v.14C134.79,56.13,123.11,65.76,105.73,65.76ZM95.07,16.24a8.12,8.12,0,0,0-4.84,7.66V24c0,3.16,1.14,6,15.1,8.85,4.39.88,12.62,2.53,12.62,10.32v.14a9.38,9.38,0,0,1-2.33,6,8.07,8.07,0,0,0,4.75-7.58v-.14c0-2.57,0-6.09-15.24-8.9-4.08-.77-12.48-2.36-12.48-10.27v-.14A8.88,8.88,0,0,1,95.07,16.24Z"/><path class="cls-1" d="M155.08,64.84h-31V.92H180V29.48h-1.77V48.65H155.08ZM138.53,50.43h2.14V15.33h-2.14Z"/><path class="cls-1" d="M238.56,64.84H202.13l-1.78-2.71v2.71h-31V.92h31.4c10.05,0,17.76,2.61,22.92,7.77,4.46,4.46,6.63,10,6.63,16.83v.15a22.78,22.78,0,0,1-7,16.95ZM209.89,50.43h1.33l-8.05-11.76q-.46.07-1,.12Zm-26.09,0h2.13V15.33H183.8Zm22.31-34.72a11.39,11.39,0,0,1,7.74,11v.14a11.83,11.83,0,0,1-1.92,6.48,8.58,8.58,0,0,0,4-7.68v-.15c0-3.71-1.16-5.38-2.42-6.64C211.91,17.29,209.43,16.23,206.11,15.71Z"/><path class="cls-1" d="M251,65.83c-20,0-31.53-11.08-31.53-30.4V.92H250.7V35.21a6.38,6.38,0,0,0,.16,1.56,4.14,4.14,0,0,0,.61,0,6.26,6.26,0,0,0,.09-1.19V.92h31.25V35.07C282.81,54.62,271.21,65.83,251,65.83Zm-17.12-50.5v20.1c0,11.2,5.12,16,17.12,16,12.36,0,17.41-4.74,17.41-16.35V15.33H266V35.57c0,9.49-5.83,15.62-14.85,15.62s-14.84-6.42-14.84-16V15.33Z"/><path class="cls-1" d="M317.18,64.84h-31V29.34H271.65V.92h60.1V29.34H317.18ZM300.63,50.43h2.14V15.33h-2.14Z"/><path class="cls-1" d="M387.21,64.84h-33.7l-2.61-6.65h-7.46l-2.55,6.65H307.42L334.32.57h26ZM363.33,50.43h2.23L350.73,15h-.46l11.85,31.47h-.35Zm-34.25,0H331l1.53-4h-.26L344.08,15h-.17Z"/><path class="cls-1" d="M440.34,64.84H403.91l-1.79-2.71v2.71h-31V.92h31.39c10.06,0,17.77,2.61,22.92,7.77,4.47,4.46,6.64,10,6.64,16.83v.15a22.78,22.78,0,0,1-7,16.95ZM411.67,50.43H413L405,38.67l-1,.12Zm-26.1,0h2.14V15.33h-2.14Zm22.32-34.72a11.4,11.4,0,0,1,7.74,11v.14a11.83,11.83,0,0,1-1.92,6.48,8.57,8.57,0,0,0,4-7.68v-.15c0-3.71-1.16-5.38-2.41-6.64C413.69,17.29,411.21,16.23,407.89,15.71Z"/><path class="cls-1" d="M45.53,126.8h-31V91.3H0V62.88H60.1V91.3H45.53ZM29,112.39h2.14V77.3H29Z"/><path class="cls-1" d="M80.48,127.79c-20,0-31.54-11.08-31.54-30.4V62.88H80.19v34.3a5.87,5.87,0,0,0,.16,1.55H81a6.18,6.18,0,0,0,.1-1.2V62.88H112.3V97C112.3,116.58,100.7,127.79,80.48,127.79ZM63.36,77.3V97.39c0,11.21,5.12,16,17.12,16,12.36,0,17.4-4.73,17.4-16.34V77.3H95.46V97.53c0,9.49-5.82,15.62-14.84,15.62s-14.85-6.42-14.85-16V77.3Z"/><path class="cls-1" d="M165.33,127.16H139.76L113.87,62.88H148.2l4.49,13,4.48-13h34.06Zm-10.16-14.42h.43L169.88,77.3h-2.44Zm-5.68,0h.71L137.94,77.3h-2.73Z"/><path class="cls-1" d="M206.43,126.8h-31V62.88h31Zm-16.55-14.41H192V77.3h-2.14Z"/><path class="cls-1" d="M223.34,126.8h-25.6V62.88h26.17c22.63,0,36.69,12.09,36.69,31.54v.14C260.6,114.15,246,126.8,223.34,126.8Zm-11.18-14.41h2.13V77.31h10c14.49,0,19.65,9,19.65,17.46v.15c0,7.52-4.1,15.5-15.26,17.15,8.12-1,17.54-4.92,17.54-17.51v-.14c0-11.36-7.5-17.12-22.28-17.12H212.16Zm16.55-19.84v4.59a2.39,2.39,0,0,0,.79-2.22v-.15A2.39,2.39,0,0,0,228.71,92.55Z"/><path class="cls-1" d="M319.67,126.8H286l-2.61-6.64h-7.47l-2.54,6.64H239.88l26.9-64.27h26Zm-23.88-14.41H298L283.18,76.94h-.45l11.85,31.48h-.35Zm-34.25,0h1.89l1.53-4h-.26l11.84-31.48h-.17Z"/><path class="cls-2" d="M9.12,8.13h19c19.66,0,29.49,9.69,29.49,24.33v.14c0,14.64-10,25-30.06,25H9.12Zm19.3,35.08C36,43.21,40.87,40.09,40.87,33v-.14c0-7.14-4.88-10.26-12.45-10.26H25.67V43.21Z"/><path class="cls-2" d="M62.16,8.13H78.71v49.5H62.16Z"/><path class="cls-2" d="M80.34,50.21l8.84-10.54a28.35,28.35,0,0,0,17.32,5.8c3,0,4.25-.78,4.25-2.12v-.14c0-1.42-1.56-2.2-6.86-3.26C92.78,37.69,83,34.51,83,24V23.9c0-9.41,7.36-16.69,21-16.69,9.55,0,16.62,2.26,22.35,6.79l-8.07,11.17a26,26,0,0,0-14.85-4.88c-2.47,0-3.6.85-3.6,2.05v.14c0,1.35,1.34,2.2,6.57,3.19,12.66,2.33,21.15,6,21.15,16v.14c0,10.4-8.56,16.76-21.85,16.76C95.68,58.55,86.63,55.72,80.34,50.21Z"/><path class="cls-2" d="M131.33,8.13h41.44V22.27H147.88v6.3H171V41.44H147.88V57.63H131.33Z"/><path class="cls-2" d="M176.59,8.13h24.19c8.77,0,14.35,2.19,17.82,5.65,3,3,4.53,6.65,4.53,11.74v.15c0,7.21-3.75,12.23-9.76,15.13l11.52,16.83H206l-9.33-14.14h-3.54V57.63H176.59Zm23.69,23.55c4,0,6.37-1.77,6.37-4.81v-.14c0-3.19-2.48-4.74-6.3-4.74h-7.21v9.69Z"/><path class="cls-2" d="M226.66,35.43V8.13h16.83V35.21c0,6.16,3.19,8.77,7.64,8.77s7.64-2.4,7.64-8.41V8.13H275.6V35.07c0,16.91-9.83,23.55-24.61,23.55S226.66,51.83,226.66,35.43Z"/><path class="cls-2" d="M293.43,22.13H278.86v-14h45.68v14H310v35.5H293.43Z"/><path class="cls-2" d="M339.11,7.77h16.41l20.87,49.86h-18L355.81,51H338.48l-2.55,6.64H318.25ZM351.7,39.25l-4.52-12-4.53,12Z"/><path class="cls-2" d="M378.37,8.13h24.18c8.77,0,14.36,2.19,17.83,5.65,3,3,4.52,6.65,4.52,11.74v.15c0,7.21-3.75,12.23-9.76,15.13l11.53,16.83H407.79l-9.34-14.14h-3.53V57.63H378.37Zm23.69,23.55c4,0,6.36-1.77,6.36-4.81v-.14c0-3.19-2.47-4.74-6.29-4.74h-7.21v9.69Z"/><path class="cls-2" d="M21.78,84.09H7.21v-14H52.9v14H38.33V119.6H21.78Z"/><path class="cls-2" d="M56.15,97.39V70.09H73V97.18c0,6.15,3.18,8.77,7.64,8.77s7.64-2.41,7.64-8.42V70.09h16.83V97c0,16.9-9.83,23.55-24.61,23.55S56.15,113.8,56.15,97.39Z"/><path class="cls-2" d="M124.54,70.09h18.53l9.62,27.8,9.62-27.8h18.24L160.47,120H144.62Z"/><path class="cls-2" d="M182.67,70.09h16.55V119.6H182.67Z"/><path class="cls-2" d="M205,70.09h19c19.66,0,29.49,9.69,29.49,24.33v.14c0,14.64-10.05,25-30.06,25H205Zm19.31,35.08c7.57,0,12.45-3.11,12.45-10.25v-.15c0-7.14-4.88-10.25-12.45-10.25H221.5v20.65Z"/><path class="cls-2" d="M271.57,69.74H288l20.87,49.86h-18L288.26,113H270.94l-2.55,6.65H250.71Zm12.59,31.47-4.52-12-4.53,12Z"/><path class="cls-3" d="M9.12,8.13h19c19.66,0,29.49,9.69,29.49,24.33v.14c0,14.64-10,25-30.06,25H9.12Zm19.3,35.08C36,43.21,40.87,40.09,40.87,33v-.14c0-7.14-4.88-10.26-12.45-10.26H25.67V43.21Z"/><path class="cls-3" d="M62.16,8.13H78.71v49.5H62.16Z"/><path class="cls-3" d="M80.34,50.21l8.84-10.54a28.35,28.35,0,0,0,17.32,5.8c3,0,4.25-.78,4.25-2.12v-.14c0-1.42-1.56-2.2-6.86-3.26C92.78,37.69,83,34.51,83,24V23.9c0-9.41,7.36-16.69,21-16.69,9.55,0,16.62,2.26,22.35,6.79l-8.07,11.17a26,26,0,0,0-14.85-4.88c-2.47,0-3.6.85-3.6,2.05v.14c0,1.35,1.34,2.2,6.57,3.19,12.66,2.33,21.15,6,21.15,16v.14c0,10.4-8.56,16.76-21.85,16.76C95.68,58.55,86.63,55.72,80.34,50.21Z"/><path class="cls-3" d="M131.33,8.13h41.44V22.27H147.88v6.3H171V41.44H147.88V57.63H131.33Z"/><path class="cls-3" d="M176.59,8.13h24.19c8.77,0,14.35,2.19,17.82,5.65,3,3,4.53,6.65,4.53,11.74v.15c0,7.21-3.75,12.23-9.76,15.13l11.52,16.83H206l-9.33-14.14h-3.54V57.63H176.59Zm23.69,23.55c4,0,6.37-1.77,6.37-4.81v-.14c0-3.19-2.48-4.74-6.3-4.74h-7.21v9.69Z"/><path class="cls-3" d="M226.66,35.43V8.13h16.83V35.21c0,6.16,3.19,8.77,7.64,8.77s7.64-2.4,7.64-8.41V8.13H275.6V35.07c0,16.91-9.83,23.55-24.61,23.55S226.66,51.83,226.66,35.43Z"/><path class="cls-3" d="M293.43,22.13H278.86v-14h45.68v14H310v35.5H293.43Z"/><path class="cls-3" d="M339.11,7.77h16.41l20.87,49.86h-18L355.81,51H338.48l-2.55,6.64H318.25ZM351.7,39.25l-4.52-12-4.53,12Z"/><path class="cls-3" d="M378.37,8.13h24.18c8.77,0,14.36,2.19,17.83,5.65,3,3,4.52,6.65,4.52,11.74v.15c0,7.21-3.75,12.23-9.76,15.13l11.53,16.83H407.79l-9.34-14.14h-3.53V57.63H378.37Zm23.69,23.55c4,0,6.36-1.77,6.36-4.81v-.14c0-3.19-2.47-4.74-6.29-4.74h-7.21v9.69Z"/><path class="cls-3" d="M21.78,84.09H7.21v-14H52.9v14H38.33V119.6H21.78Z"/><path class="cls-3" d="M56.15,97.39V70.09H73V97.18c0,6.15,3.18,8.77,7.64,8.77s7.64-2.41,7.64-8.42V70.09h16.83V97c0,16.9-9.83,23.55-24.61,23.55S56.15,113.8,56.15,97.39Z"/><path class="cls-3" d="M124.54,70.09h18.53l9.62,27.8,9.62-27.8h18.24L160.47,120H144.62Z"/><path class="cls-3" d="M182.67,70.09h16.55V119.6H182.67Z"/><path class="cls-3" d="M205,70.09h19c19.66,0,29.49,9.69,29.49,24.33v.14c0,14.64-10.05,25-30.06,25H205Zm19.31,35.08c7.57,0,12.45-3.11,12.45-10.25v-.15c0-7.14-4.88-10.25-12.45-10.25H221.5v20.65Z"/><path class="cls-3" d="M271.57,69.74H288l20.87,49.86h-18L288.26,113H270.94l-2.55,6.65H250.71Zm12.59,31.47-4.52-12-4.53,12Z"/></g></g></svg>